<svg width="32" height="32" viewBox="0 0 32 32" fill="none" xmlns="http://www.w3.org/2000/svg">
<path d="M16 31.5C7.43959 31.5 0.5 24.5604 0.5 16C0.5 7.43959 7.43959 0.5 16 0.5C24.5604 0.5 31.5 7.43959 31.5 16C31.5 24.5604 24.5604 31.5 16 31.5Z" fill="#000" stroke="#fff" stroke-linejoin="round"/>
<path d="M16.0005 16C15.2094 16.0001 14.436 15.7656 13.7781 15.3261C13.1202 14.8867 12.6075 14.262 12.3046 13.5311C12.0018 12.8002 11.9225 11.9959 12.0768 11.22C12.2311 10.444 12.612 9.73123 13.1714 9.17177C13.7308 8.6123 14.4435 8.23129 15.2194 8.0769C15.9954 7.92252 16.7997 8.0017 17.5306 8.30443C18.2615 8.60717 18.8863 9.11986 19.3258 9.77766C19.7654 10.4355 20 11.2089 20 12C19.999 13.0605 19.5773 14.0772 18.8275 14.8271C18.0777 15.577 17.061 15.9988 16.0005 16Z" fill="#fff"/>
<path d="M22.4203 24H9.57968L9 23.4647C9 22.6157 9.18106 21.7751 9.53284 20.9907C9.88463 20.2064 10.4002 19.4938 11.0503 18.8935C11.7003 18.2932 12.4719 17.817 13.3212 17.4921C14.1705 17.1672 15.0807 17 16 17C16.9193 17 17.8295 17.1672 18.6788 17.4921C19.5281 17.817 20.2997 18.2932 20.9497 18.8935C21.5998 19.4938 22.1154 20.2064 22.4672 20.9907C22.8189 21.7751 23 22.6157 23 23.4647L22.4203 24Z" fill="#fff"/>
</svg>
