<svg xmlns="http://www.w3.org/2000/svg" width="32" height="32" fill="none" viewBox="0 0 32 32">
  <rect width="31" height="31" x=".5" y=".5" fill="#000" stroke="#fff" stroke-linejoin="round" rx="7.5"/>
  <path fill="#fff" d="M16 16a4 4 0 1 1 0-8 4 4 0 0 1 0 8Zm6.42 8H9.58L9 23.465c0-.85.181-1.69.533-2.474a6.455 6.455 0 0 1 1.517-2.098 7.064 7.064 0 0 1 2.271-1.4A7.506 7.506 0 0 1 16 17a7.5 7.5 0 0 1 2.679.492c.85.325 1.62.801 2.27 1.401.65.6 1.166 1.313 1.518 2.098A6.04 6.04 0 0 1 23 23.465l-.58.535Z"/>
</svg>
