<svg xmlns="http://www.w3.org/2000/svg" width="32" height="32" fill="none" viewBox="0 0 32 32">
  <rect width="31" height="31" x=".5" y=".5" fill="#000" stroke="#fff" stroke-linejoin="round" rx="7.5"/>
  <path fill="#fff" stroke="#fff" stroke-linejoin="round" d="M15.561 8.85a.5.5 0 0 1 .878 0l1.698 3.114a1.5 1.5 0 0 0 1.041.756l3.487.653a.5.5 0 0 1 .271.835L20.5 16.786a1.5 1.5 0 0 0-.397 1.223l.456 3.518a.5.5 0 0 1-.71.516l-3.205-1.521a1.5 1.5 0 0 0-1.286 0l-3.205 1.521a.5.5 0 0 1-.71-.516l.456-3.518a1.5 1.5 0 0 0-.397-1.223l-2.437-2.578a.5.5 0 0 1 .27-.835l3.488-.653a1.5 1.5 0 0 0 1.04-.756l1.699-3.115Z"/>
</svg>
