<svg width="32" height="32" viewBox="0 0 32 32" fill="none" xmlns="http://www.w3.org/2000/svg">
<path d="M16 31.5C7.43959 31.5 0.5 24.5604 0.5 16C0.5 7.43959 7.43959 0.5 16 0.5C24.5604 0.5 31.5 7.43959 31.5 16C31.5 24.5604 24.5604 31.5 16 31.5Z" fill="#000" stroke="#fff" stroke-linejoin="round"/>
<path fill-rule="evenodd" clip-rule="evenodd" d="M15.5656 18.6701L16.7483 19.3529C16.9039 19.4428 16.9565 19.6391 16.8487 19.8259L14.3151 24.2142C14.2791 24.2764 14.2432 24.3387 14.1941 24.3518C12.7284 25.1655 10.7699 24.5327 10.7077 24.4968L10.6454 24.4608L10.5832 24.4249C10.5776 24.4187 10.5645 24.4056 10.5448 24.386C10.2961 24.1386 9.00826 22.8574 8.96549 21.3331C8.9703 21.2529 8.98827 21.2218 9.02421 21.1595L11.5758 16.7401C11.6656 16.5845 11.862 16.5318 12.0176 16.6217L13.2003 17.3045L13.0899 18.0707L13.4011 18.2504L18.3592 9.66273L17.1282 7.42515C17.0945 7.36384 17.0953 7.28936 17.1303 7.22875L17.7239 6.20055C17.7791 6.10489 17.9015 6.07212 17.9971 6.12734L22.8469 8.92734C22.9425 8.98257 22.9753 9.10489 22.9201 9.20055L22.3264 10.2288C22.2914 10.2894 22.2273 10.3273 22.1574 10.3287L19.6041 10.3815L14.646 18.9691L14.9572 19.1488L15.5656 18.6701Z" fill="#fff"/>
</svg>
