<svg xmlns="http://www.w3.org/2000/svg" width="32" height="32" fill="none" viewBox="0 0 32 32">
  <rect width="31" height="31" x=".5" y=".5" fill="#000" stroke="#fff" stroke-linejoin="round" rx="7.5"/>
  <path fill="#fff" d="M22.188 8.813h-1.375v1.374h1.375V8.813Zm-11-2.063H9.812v1.375h1.376V6.75Zm2.75 4.125h-1.376v1.375h1.376v-1.375Z"/>
  <path fill="#fff" d="M24.25 10.875v6.05c-.567-.395-1.255-.722-2.063-.997v-4.366h-1.375v3.97C19.317 15.173 17.65 15 16 15c-.688 0-1.375.034-2.063.086v-1.461h-1.374v1.633c-.465.069-.929.172-1.376.275V9.5H9.813v6.428c-.808.275-1.496.602-2.063.997v-3.3H6.375v5.5c0 2.681 4.967 4.125 9.625 4.125s9.625-1.444 9.625-4.125v-8.25H24.25Zm-16.5 8.25c0-.86 1.77-1.977 4.813-2.475v4.967c-3.043-.515-4.813-1.633-4.813-2.492Zm12.375 2.355v-3.73H18.75v3.953a22.45 22.45 0 0 1-2.75.172c-.722 0-1.41-.034-2.063-.086v-5.328A25.934 25.934 0 0 1 16 16.375c5.105 0 8.25 1.598 8.25 2.75 0 .79-1.512 1.805-4.125 2.355Z"/>
</svg>