<svg width="32" height="32" viewBox="0 0 32 32" fill="none" xmlns="http://www.w3.org/2000/svg">
<path d="M16 31.5C7.43959 31.5 0.5 24.5604 0.5 16C0.5 7.43959 7.43959 0.5 16 0.5C24.5604 0.5 31.5 7.43959 31.5 16C31.5 24.5604 24.5604 31.5 16 31.5Z" fill="#000" stroke="#fff" stroke-linejoin="round"/>
<path d="M23.9159 14.1466H23.2027C22.6208 14.1466 22.1328 13.6451 22.1328 13.05C22.1328 12.7501 22.2595 12.4783 22.4848 12.2768L22.9446 11.8269C23.3998 11.377 23.3998 10.6412 22.9446 10.1914L21.8982 9.15569C21.6917 8.94949 21.3867 8.82765 21.0771 8.82765C20.7674 8.82765 20.467 8.94949 20.2559 9.15569L19.8148 9.5962C19.6037 9.83051 19.3221 9.95704 19.0171 9.95704C18.4165 9.95704 17.9144 9.46967 17.9144 8.89326V8.17626C17.9144 7.54361 17.4029 7 16.7648 7H15.3383C14.7001 7 14.1934 7.53892 14.1934 8.17626V8.88857C14.1934 9.46498 13.6913 9.95236 13.0907 9.95236C12.7904 9.95236 12.5135 9.82583 12.3117 9.60557L11.8566 9.15569C11.6501 8.94481 11.3451 8.82765 11.0354 8.82765C10.7257 8.82765 10.4254 8.94949 10.2143 9.15569L9.15848 10.1867C8.70802 10.6366 8.70802 11.3723 9.15848 11.8175L9.59956 12.258C9.83418 12.4689 9.96557 12.7501 9.96557 13.05C9.96557 13.6498 9.47756 14.1466 8.89571 14.1466H8.18247C7.53962 14.1466 7 14.648 7 15.2853V15.9977V16.71C7 17.3426 7.53962 17.8487 8.18247 17.8487H8.89571C9.47756 17.8487 9.96557 18.3502 9.96557 18.9453C9.96557 19.2452 9.83418 19.5264 9.59956 19.7373L9.15848 20.1731C8.70802 20.623 8.70802 21.3588 9.15848 21.804L10.2049 22.8443C10.4113 23.0552 10.7163 23.1723 11.026 23.1723C11.3357 23.1723 11.636 23.0505 11.8472 22.8443L12.3024 22.3944C12.4994 22.1742 12.781 22.0476 13.0813 22.0476C13.6819 22.0476 14.184 22.535 14.184 23.1114V23.8237C14.184 24.4564 14.6908 25 15.3336 25H16.7601C17.3982 25 17.905 24.4611 17.905 23.8237V23.1114C17.905 22.535 18.4071 22.0476 19.0077 22.0476C19.308 22.0476 19.5896 22.1789 19.8054 22.4085L20.2465 22.849C20.4577 23.0552 20.758 23.177 21.0677 23.177C21.3774 23.177 21.6777 23.0552 21.8888 22.849L22.9352 21.8086C23.3857 21.3588 23.3857 20.623 22.9352 20.1731L22.4754 19.7232C22.2501 19.5217 22.1234 19.2452 22.1234 18.95C22.1234 18.3502 22.6115 17.8534 23.1933 17.8534H23.9065C24.5447 17.8534 24.9999 17.352 24.9999 16.7147V15.9977V15.2853C25.0092 14.648 24.5541 14.1466 23.9159 14.1466ZM19.8007 15.9977C19.8007 18.0643 18.1256 19.7467 16.0469 19.7467C13.9681 19.7467 12.293 18.0643 12.293 15.9977C12.293 13.931 13.9681 12.2486 16.0469 12.2486C18.1256 12.2486 19.8007 13.931 19.8007 15.9977Z" fill="#fff"/>
</svg>
