<svg width="40" height="32" viewBox="0 0 40 32" fill="none" xmlns="http://www.w3.org/2000/svg">
<path d="M27.6315 25.5C26.2368 26.8947 26.2968 29.1737 27.7628 30.4931C29.072 31.6714 31.0595 31.6714 32.3687 30.4931C33.8347 29.1737 33.8947 26.8947 32.5 25.5C31.1556 24.1556 28.9759 24.1556 27.6315 25.5Z" fill="#fff"/>
<path d="M7.56574 25.4343C8.91015 24.0899 11.0899 24.0899 12.4343 25.4343V25.4343C13.8289 26.8289 13.769 29.1079 12.3029 30.4273V30.4273C10.9937 31.6056 9.00627 31.6056 7.69705 30.4273V30.4273C6.23101 29.1079 6.17108 26.8289 7.56574 25.4343V25.4343Z" fill="#fff"/>
<path d="M20 1L1 23L20 19L39 23L20 1Z" fill="#fff"/>
<path d="M27.6315 25.5C26.2368 26.8947 26.2968 29.1737 27.7628 30.4931C29.072 31.6714 31.0595 31.6714 32.3687 30.4931C33.8347 29.1737 33.8947 26.8947 32.5 25.5C31.1556 24.1556 28.9759 24.1556 27.6315 25.5Z" stroke="#fff" stroke-linejoin="round"/>
<path d="M7.56574 25.4343C8.91015 24.0899 11.0899 24.0899 12.4343 25.4343V25.4343C13.8289 26.8289 13.769 29.1079 12.3029 30.4273V30.4273C10.9937 31.6056 9.00627 31.6056 7.69705 30.4273V30.4273C6.23101 29.1079 6.17108 26.8289 7.56574 25.4343V25.4343Z" stroke="#fff" stroke-linejoin="round"/>
<path d="M20 1L1 23L20 19L39 23L20 1Z" stroke="#fff" stroke-linejoin="round"/>
</svg>
