<svg width="40" height="32" viewBox="0 0 40 32" fill="none" xmlns="http://www.w3.org/2000/svg">
<path d="M7.63148 25.5C6.23682 26.8947 6.29675 29.1737 7.76279 30.4931C9.07201 31.6714 11.0595 31.6714 12.3687 30.4931C13.8347 29.1737 13.8947 26.8947 12.5 25.5C11.1556 24.1556 8.97589 24.1556 7.63148 25.5Z" fill="#fff"/>
<path d="M1 23L20 19L39 23L33.7863 10.2555C31.4962 4.65743 26.0484 1 20 1V1V1C13.9516 1 8.50378 4.65743 6.21367 10.2555L1 23Z" fill="#fff"/>
<path d="M27.6315 25.5C26.2368 26.8947 26.2968 29.1737 27.7628 30.4931C29.072 31.6714 31.0595 31.6714 32.3687 30.4931C33.8347 29.1737 33.8947 26.8947 32.5 25.5C31.1556 24.1556 28.9759 24.1556 27.6315 25.5Z" fill="#fff"/>
<path d="M7.63148 25.5C6.23682 26.8947 6.29675 29.1737 7.76279 30.4931C9.07201 31.6714 11.0595 31.6714 12.3687 30.4931C13.8347 29.1737 13.8947 26.8947 12.5 25.5C11.1556 24.1556 8.97589 24.1556 7.63148 25.5Z" stroke="#fff" stroke-linejoin="round"/>
<path d="M1 23L20 19L39 23L33.7863 10.2555C31.4962 4.65743 26.0484 1 20 1V1V1C13.9516 1 8.50378 4.65743 6.21367 10.2555L1 23Z" stroke="#fff" stroke-linejoin="round"/>
<path d="M27.6315 25.5C26.2368 26.8947 26.2968 29.1737 27.7628 30.4931C29.072 31.6714 31.0595 31.6714 32.3687 30.4931C33.8347 29.1737 33.8947 26.8947 32.5 25.5C31.1556 24.1556 28.9759 24.1556 27.6315 25.5Z" stroke="#fff" stroke-linejoin="round"/>
</svg>
