<svg width="40" height="32" viewBox="0 0 40 32" fill="none" xmlns="http://www.w3.org/2000/svg">
<path d="M17.6315 25.5C16.2368 26.8947 16.2968 29.1737 17.7628 30.4931C19.072 31.6714 21.0595 31.6714 22.3687 30.4931C23.8347 29.1737 23.8947 26.8947 22.5 25.5C21.1556 24.1556 18.9759 24.1556 17.6315 25.5Z" fill="#fff"/>
<path d="M1 23L20 19L39 23L33.7863 10.2555C31.4962 4.65743 26.0484 1 20 1V1V1C13.9516 1 8.50378 4.65743 6.21367 10.2555L1 23Z" fill="#fff"/>
<path d="M17.6315 25.5C16.2368 26.8947 16.2968 29.1737 17.7628 30.4931C19.072 31.6714 21.0595 31.6714 22.3687 30.4931C23.8347 29.1737 23.8947 26.8947 22.5 25.5C21.1556 24.1556 18.9759 24.1556 17.6315 25.5Z" stroke="#fff" stroke-linejoin="round"/>
<path d="M1 23L20 19L39 23L33.7863 10.2555C31.4962 4.65743 26.0484 1 20 1V1V1C13.9516 1 8.50378 4.65743 6.21367 10.2555L1 23Z" stroke="#fff" stroke-linejoin="round"/>
</svg>
